%TF.GenerationSoftware,KiCad,Pcbnew,7.0.7*%
%TF.CreationDate,2024-04-09T13:36:58-07:00*%
%TF.ProjectId,Side B,53696465-2042-42e6-9b69-6361645f7063,rev?*%
%TF.SameCoordinates,Original*%
%TF.FileFunction,Copper,L1,Top*%
%TF.FilePolarity,Positive*%
%FSLAX46Y46*%
G04 Gerber Fmt 4.6, Leading zero omitted, Abs format (unit mm)*
G04 Created by KiCad (PCBNEW 7.0.7) date 2024-04-09 13:36:58*
%MOMM*%
%LPD*%
G01*
G04 APERTURE LIST*
G04 Aperture macros list*
%AMRoundRect*
0 Rectangle with rounded corners*
0 $1 Rounding radius*
0 $2 $3 $4 $5 $6 $7 $8 $9 X,Y pos of 4 corners*
0 Add a 4 corners polygon primitive as box body*
4,1,4,$2,$3,$4,$5,$6,$7,$8,$9,$2,$3,0*
0 Add four circle primitives for the rounded corners*
1,1,$1+$1,$2,$3*
1,1,$1+$1,$4,$5*
1,1,$1+$1,$6,$7*
1,1,$1+$1,$8,$9*
0 Add four rect primitives between the rounded corners*
20,1,$1+$1,$2,$3,$4,$5,0*
20,1,$1+$1,$4,$5,$6,$7,0*
20,1,$1+$1,$6,$7,$8,$9,0*
20,1,$1+$1,$8,$9,$2,$3,0*%
G04 Aperture macros list end*
%TA.AperFunction,SMDPad,CuDef*%
%ADD10RoundRect,0.250000X-0.262500X-0.450000X0.262500X-0.450000X0.262500X0.450000X-0.262500X0.450000X0*%
%TD*%
%TA.AperFunction,ComponentPad*%
%ADD11R,1.700000X1.700000*%
%TD*%
%TA.AperFunction,Conductor*%
%ADD12C,0.250000*%
%TD*%
G04 APERTURE END LIST*
D10*
%TO.P,R1,1*%
%TO.N,C1*%
X165650000Y-104650000D03*
%TO.P,R1,2*%
%TO.N,C2*%
X167475000Y-104650000D03*
%TD*%
D11*
%TO.P,J1,1,Pin_1*%
%TO.N,unconnected-(J1-Pin_1-Pad1)*%
X145800000Y-93650000D03*
%TD*%
%TO.P,J2,1,Pin_1*%
%TO.N,unconnected-(J2-Pin_1-Pad1)*%
X163700000Y-93650000D03*
%TD*%
%TO.P,J3,1,Pin_1*%
%TO.N,unconnected-(J3-Pin_1-Pad1)*%
X166500000Y-93650000D03*
%TD*%
D12*
%TO.N,12V*%
X143200000Y-102750000D02*
X143200000Y-95450000D01*
X142800000Y-95400000D02*
X142800000Y-102750000D01*
X143000000Y-102950000D02*
X143200000Y-102750000D01*
X142600000Y-95200000D02*
X142800000Y-95400000D01*
X142400000Y-95400000D02*
X142600000Y-95200000D01*
X142800000Y-102750000D02*
X143000000Y-102950000D01*
X142400000Y-102750000D02*
X142400000Y-95450000D01*
X142200000Y-102950000D02*
X142400000Y-102750000D01*
X142000000Y-95400000D02*
X142000000Y-102750000D01*
X141800000Y-95200000D02*
X142000000Y-95400000D01*
X141600000Y-103400000D02*
X141600000Y-95400000D01*
X142050000Y-103400000D02*
X141600000Y-103400000D01*
X142200000Y-103550000D02*
X142050000Y-103400000D01*
X141600000Y-95400000D02*
X141800000Y-95200000D01*
X142200000Y-104000000D02*
X142200000Y-103550000D01*
X142000000Y-102750000D02*
X142200000Y-102950000D01*
X163850000Y-105300000D02*
X146700000Y-105300000D01*
X163850000Y-105650000D02*
X163850000Y-105300000D01*
X147600000Y-105750000D02*
X163750000Y-105750000D01*
X147350000Y-106000000D02*
X147600000Y-105750000D01*
X147600000Y-106250000D02*
X147350000Y-106000000D01*
X174400000Y-106800000D02*
X174400000Y-106250000D01*
X147700000Y-106800000D02*
X174400000Y-106800000D01*
X174400000Y-106250000D02*
X147600000Y-106250000D01*
X147400000Y-107100000D02*
X147700000Y-106800000D01*
X147700000Y-107400000D02*
X147400000Y-107100000D01*
X174800000Y-107400000D02*
X147700000Y-107400000D01*
X174800000Y-95350000D02*
X174800000Y-107400000D01*
X174600000Y-95150000D02*
X174800000Y-95350000D01*
X174400000Y-95350000D02*
X174600000Y-95150000D01*
X174400000Y-105550000D02*
X174400000Y-95350000D01*
X174200000Y-105750000D02*
X174400000Y-105550000D01*
X174000000Y-105550000D02*
X174200000Y-105750000D01*
X163750000Y-105750000D02*
X163850000Y-105650000D01*
X174000000Y-95350000D02*
X174000000Y-105550000D01*
X173600000Y-105550000D02*
X173600000Y-95350000D01*
X173600000Y-95350000D02*
X173800000Y-95150000D01*
X173200000Y-105550000D02*
X173400000Y-105750000D01*
X173800000Y-95150000D02*
X174000000Y-95350000D01*
X173200000Y-95350000D02*
X173200000Y-105550000D01*
X173000000Y-95150000D02*
X173200000Y-95350000D01*
X172800000Y-95350000D02*
X173000000Y-95150000D01*
X173400000Y-105750000D02*
X173600000Y-105550000D01*
X147200000Y-103500000D02*
X147200000Y-95400000D01*
X147000000Y-103700000D02*
X147200000Y-103500000D01*
X146800000Y-95350000D02*
X146800000Y-103500000D01*
X146800000Y-103500000D02*
X147000000Y-103700000D01*
X146600000Y-95150000D02*
X146800000Y-95350000D01*
X146400000Y-95350000D02*
X146600000Y-95150000D01*
X145600000Y-103450000D02*
X145600000Y-95400000D01*
X145200000Y-95350000D02*
X145200000Y-103450000D01*
X145200000Y-103450000D02*
X145400000Y-103650000D01*
X145400000Y-103650000D02*
X145600000Y-103450000D01*
X145000000Y-95150000D02*
X145200000Y-95350000D01*
X144800000Y-95350000D02*
X145000000Y-95150000D01*
X146200000Y-103650000D02*
X146400000Y-103450000D01*
X146400000Y-103450000D02*
X146400000Y-95400000D01*
X146000000Y-95350000D02*
X146000000Y-103450000D01*
X145600000Y-95350000D02*
X145800000Y-95150000D01*
X145800000Y-95150000D02*
X146000000Y-95350000D01*
X146000000Y-103450000D02*
X146200000Y-103650000D01*
X160400000Y-95350000D02*
X160400000Y-104600000D01*
X148800000Y-95350000D02*
X149000000Y-95150000D01*
X165600000Y-103250000D02*
X165600000Y-95400000D01*
X151600000Y-95350000D02*
X151600000Y-104600000D01*
X151400000Y-95150000D02*
X151600000Y-95350000D01*
X172000000Y-105550000D02*
X172000000Y-95400000D01*
X148600000Y-104800000D02*
X148800000Y-104600000D01*
X162800000Y-95350000D02*
X162800000Y-104600000D01*
X164000000Y-104600000D02*
X164000000Y-95400000D01*
X172200000Y-95150000D02*
X172400000Y-95350000D01*
X153600000Y-104600000D02*
X153600000Y-95400000D01*
X169800000Y-95150000D02*
X170000000Y-95350000D01*
X162000000Y-104600000D02*
X162200000Y-104800000D01*
X162400000Y-95350000D02*
X162600000Y-95150000D01*
X156200000Y-95150000D02*
X156400000Y-95350000D01*
X161000000Y-95150000D02*
X161200000Y-95350000D01*
X165200000Y-95350000D02*
X165200000Y-103250000D01*
X147200000Y-95350000D02*
X147400000Y-95150000D01*
X171200000Y-105550000D02*
X171200000Y-95400000D01*
X155600000Y-95350000D02*
X155600000Y-104600000D01*
X152000000Y-104600000D02*
X152000000Y-95400000D01*
X166000000Y-103200000D02*
X166200000Y-103400000D01*
X165200000Y-103250000D02*
X165400000Y-103450000D01*
X154000000Y-104600000D02*
X154200000Y-104800000D01*
X169200000Y-105550000D02*
X169400000Y-105750000D01*
X155000000Y-104800000D02*
X155200000Y-104600000D01*
X155200000Y-95350000D02*
X155400000Y-95150000D01*
X163600000Y-95350000D02*
X163600000Y-104600000D01*
X170600000Y-95150000D02*
X170800000Y-95350000D01*
X168400000Y-103200000D02*
X168600000Y-103400000D01*
X168400000Y-95350000D02*
X168400000Y-103200000D01*
X152000000Y-95350000D02*
X152200000Y-95150000D01*
X156000000Y-104600000D02*
X156000000Y-95400000D01*
X160800000Y-95350000D02*
X161000000Y-95150000D01*
X154400000Y-95350000D02*
X154600000Y-95150000D01*
X161600000Y-95350000D02*
X161800000Y-95150000D01*
X152400000Y-95350000D02*
X152400000Y-104600000D01*
X169200000Y-95350000D02*
X169200000Y-105550000D01*
X159200000Y-95350000D02*
X159400000Y-95150000D01*
X151200000Y-95350000D02*
X151400000Y-95150000D01*
X143600000Y-95400000D02*
X143600000Y-104650000D01*
X157600000Y-95350000D02*
X157800000Y-95150000D01*
X144000000Y-95400000D02*
X144200000Y-95200000D01*
X155600000Y-104600000D02*
X155800000Y-104800000D01*
X168800000Y-103200000D02*
X168800000Y-95400000D01*
X163000000Y-104800000D02*
X163200000Y-104600000D01*
X143400000Y-95200000D02*
X143600000Y-95400000D01*
X150800000Y-95350000D02*
X150800000Y-104600000D01*
X153200000Y-104600000D02*
X153400000Y-104800000D01*
X160200000Y-95150000D02*
X160400000Y-95350000D01*
X148400000Y-104600000D02*
X148600000Y-104800000D01*
X166400000Y-103200000D02*
X166400000Y-95400000D01*
X161600000Y-104600000D02*
X161600000Y-95400000D01*
X163400000Y-95150000D02*
X163600000Y-95350000D01*
X165000000Y-95150000D02*
X165200000Y-95350000D01*
X168000000Y-95350000D02*
X168200000Y-95150000D01*
X171600000Y-95350000D02*
X171600000Y-105550000D01*
X152200000Y-95150000D02*
X152400000Y-95350000D01*
X159600000Y-95350000D02*
X159600000Y-104600000D01*
X163200000Y-95350000D02*
X163400000Y-95150000D01*
X157200000Y-104600000D02*
X157400000Y-104800000D01*
X165800000Y-95150000D02*
X166000000Y-95350000D01*
X160600000Y-104800000D02*
X160800000Y-104600000D01*
X158200000Y-104800000D02*
X158400000Y-104600000D01*
X166600000Y-95150000D02*
X166800000Y-95350000D01*
X164200000Y-95150000D02*
X164400000Y-95350000D01*
X159800000Y-104800000D02*
X160000000Y-104600000D01*
X171600000Y-105550000D02*
X171800000Y-105750000D01*
X155200000Y-104600000D02*
X155200000Y-95400000D01*
X169600000Y-95350000D02*
X169800000Y-95150000D01*
X148400000Y-95350000D02*
X148400000Y-104600000D01*
X154800000Y-104600000D02*
X155000000Y-104800000D01*
X158600000Y-95150000D02*
X158800000Y-95350000D01*
X157200000Y-95350000D02*
X157200000Y-104600000D01*
X143200000Y-95400000D02*
X143400000Y-95200000D01*
X160000000Y-104600000D02*
X160000000Y-95400000D01*
X162800000Y-104600000D02*
X163000000Y-104800000D01*
X172000000Y-95350000D02*
X172200000Y-95150000D01*
X158800000Y-95350000D02*
X158800000Y-104600000D01*
X143800000Y-104850000D02*
X144000000Y-104650000D01*
X161400000Y-104800000D02*
X161600000Y-104600000D01*
X154400000Y-104600000D02*
X154400000Y-95400000D01*
X163200000Y-104600000D02*
X163200000Y-95400000D01*
X172400000Y-95350000D02*
X172400000Y-105550000D01*
X149000000Y-95150000D02*
X149200000Y-95350000D01*
X157600000Y-104600000D02*
X157600000Y-95400000D01*
X149800000Y-95150000D02*
X150000000Y-95350000D01*
X164400000Y-103250000D02*
X164600000Y-103450000D01*
X170000000Y-95350000D02*
X170000000Y-105600000D01*
X157000000Y-95150000D02*
X157200000Y-95350000D01*
X161200000Y-104600000D02*
X161400000Y-104800000D01*
X168200000Y-95150000D02*
X168400000Y-95350000D01*
X154600000Y-95150000D02*
X154800000Y-95350000D01*
X163600000Y-104600000D02*
X163800000Y-104800000D01*
X164800000Y-103250000D02*
X164800000Y-95400000D01*
X159600000Y-104600000D02*
X159800000Y-104800000D01*
X156600000Y-104800000D02*
X156800000Y-104600000D01*
X170800000Y-95350000D02*
X170800000Y-105550000D01*
X168600000Y-103400000D02*
X168800000Y-103200000D01*
X150800000Y-104600000D02*
X151000000Y-104800000D01*
X156800000Y-104600000D02*
X156800000Y-95400000D01*
X151800000Y-104800000D02*
X152000000Y-104600000D01*
X166000000Y-95350000D02*
X166000000Y-103200000D01*
X163800000Y-104800000D02*
X164000000Y-104600000D01*
X152800000Y-104600000D02*
X152800000Y-95400000D01*
X168800000Y-95350000D02*
X169000000Y-95150000D01*
X167400000Y-95150000D02*
X167600000Y-95350000D01*
X159200000Y-104600000D02*
X159200000Y-95400000D01*
X153000000Y-95150000D02*
X153200000Y-95350000D01*
X162600000Y-95150000D02*
X162800000Y-95350000D01*
X167200000Y-103200000D02*
X167200000Y-95400000D01*
X143600000Y-104650000D02*
X143800000Y-104850000D01*
X144400000Y-104650000D02*
X144600000Y-104850000D01*
X158000000Y-95350000D02*
X158000000Y-104600000D01*
X149200000Y-104600000D02*
X149400000Y-104800000D01*
X161800000Y-95150000D02*
X162000000Y-95350000D01*
X167200000Y-95350000D02*
X167400000Y-95150000D01*
X154800000Y-95350000D02*
X154800000Y-104600000D01*
X150000000Y-95350000D02*
X150000000Y-104600000D01*
X147400000Y-95150000D02*
X147600000Y-95350000D01*
X150400000Y-104600000D02*
X150400000Y-95400000D01*
X147600000Y-104600000D02*
X147800000Y-104800000D01*
X151000000Y-104800000D02*
X151200000Y-104600000D01*
X149400000Y-104800000D02*
X149600000Y-104600000D01*
X170000000Y-105600000D02*
X170200000Y-105800000D01*
X165600000Y-95350000D02*
X165800000Y-95150000D01*
X168000000Y-103200000D02*
X168000000Y-95400000D01*
X149600000Y-95350000D02*
X149800000Y-95150000D01*
X167600000Y-103200000D02*
X167800000Y-103400000D01*
X156400000Y-104600000D02*
X156600000Y-104800000D01*
X158400000Y-104600000D02*
X158400000Y-95400000D01*
X162200000Y-104800000D02*
X162400000Y-104600000D01*
X161200000Y-95350000D02*
X161200000Y-104600000D01*
X153400000Y-104800000D02*
X153600000Y-104600000D01*
X149600000Y-104600000D02*
X149600000Y-95400000D01*
X151600000Y-104600000D02*
X151800000Y-104800000D01*
X144800000Y-104600000D02*
X144800000Y-95400000D01*
X170400000Y-105600000D02*
X170400000Y-95400000D01*
X167600000Y-95350000D02*
X167600000Y-103200000D01*
X152600000Y-104800000D02*
X152800000Y-104600000D01*
X166800000Y-95350000D02*
X166800000Y-103200000D01*
X151200000Y-104600000D02*
X151200000Y-95400000D01*
X169400000Y-105750000D02*
X169600000Y-105550000D01*
X153800000Y-95150000D02*
X154000000Y-95350000D01*
X165400000Y-103450000D02*
X165600000Y-103250000D01*
X155800000Y-104800000D02*
X156000000Y-104600000D01*
X166200000Y-103400000D02*
X166400000Y-103200000D01*
X160400000Y-104600000D02*
X160600000Y-104800000D01*
X166400000Y-95350000D02*
X166600000Y-95150000D01*
X154200000Y-104800000D02*
X154400000Y-104600000D01*
X148800000Y-104600000D02*
X148800000Y-95400000D01*
X171800000Y-105750000D02*
X172000000Y-105550000D01*
X170400000Y-95350000D02*
X170600000Y-95150000D01*
X157800000Y-95150000D02*
X158000000Y-95350000D01*
X150200000Y-104800000D02*
X150400000Y-104600000D01*
X160000000Y-95350000D02*
X160200000Y-95150000D01*
X144000000Y-104650000D02*
X144000000Y-95450000D01*
X170200000Y-105800000D02*
X170400000Y-105600000D01*
X153200000Y-95350000D02*
X153200000Y-104600000D01*
X152400000Y-104600000D02*
X152600000Y-104800000D01*
X169000000Y-95150000D02*
X169200000Y-95350000D01*
X159000000Y-104800000D02*
X159200000Y-104600000D01*
X144400000Y-95400000D02*
X144400000Y-104650000D01*
X162000000Y-95350000D02*
X162000000Y-104600000D01*
X149200000Y-95350000D02*
X149200000Y-104600000D01*
X158000000Y-104600000D02*
X158200000Y-104800000D01*
X144600000Y-104850000D02*
X144800000Y-104650000D01*
X144200000Y-95200000D02*
X144400000Y-95400000D01*
X170800000Y-105550000D02*
X171000000Y-105750000D01*
X172600000Y-105750000D02*
X172800000Y-105550000D01*
X148200000Y-95150000D02*
X148400000Y-95350000D01*
X169600000Y-105550000D02*
X169600000Y-95400000D01*
X157400000Y-104800000D02*
X157600000Y-104600000D01*
X154000000Y-95350000D02*
X154000000Y-104600000D01*
X171000000Y-105750000D02*
X171200000Y-105550000D01*
X171400000Y-95150000D02*
X171600000Y-95350000D01*
X153600000Y-95350000D02*
X153800000Y-95150000D01*
X172800000Y-105550000D02*
X172800000Y-95400000D01*
X148000000Y-104600000D02*
X148000000Y-95400000D01*
X147800000Y-104800000D02*
X148000000Y-104600000D01*
X156000000Y-95350000D02*
X156200000Y-95150000D01*
X162400000Y-104600000D02*
X162400000Y-95400000D01*
X156800000Y-95350000D02*
X157000000Y-95150000D01*
X164800000Y-95350000D02*
X165000000Y-95150000D01*
X159400000Y-95150000D02*
X159600000Y-95350000D01*
X167000000Y-103400000D02*
X167200000Y-103200000D01*
X160800000Y-104600000D02*
X160800000Y-95400000D01*
X152800000Y-95350000D02*
X153000000Y-95150000D01*
X164000000Y-95350000D02*
X164200000Y-95150000D01*
X158400000Y-95350000D02*
X158600000Y-95150000D01*
X164400000Y-95350000D02*
X164400000Y-103250000D01*
X166800000Y-103200000D02*
X167000000Y-103400000D01*
X155400000Y-95150000D02*
X155600000Y-95350000D01*
X156400000Y-95350000D02*
X156400000Y-104600000D01*
X172400000Y-105550000D02*
X172600000Y-105750000D01*
X171200000Y-95350000D02*
X171400000Y-95150000D01*
X167800000Y-103400000D02*
X168000000Y-103200000D01*
X150600000Y-95150000D02*
X150800000Y-95350000D01*
X150000000Y-104600000D02*
X150200000Y-104800000D01*
X158800000Y-104600000D02*
X159000000Y-104800000D01*
X150400000Y-95350000D02*
X150600000Y-95150000D01*
X148000000Y-95350000D02*
X148200000Y-95150000D01*
X147600000Y-95350000D02*
X147600000Y-104600000D01*
X164600000Y-103450000D02*
X164800000Y-103250000D01*
%TD*%
%TA.AperFunction,Conductor*%
%TO.N,C1*%
G36*
X165445899Y-104104101D02*
G01*
X165450000Y-104114000D01*
X165450000Y-105236000D01*
X165445899Y-105245899D01*
X165436000Y-105250000D01*
X164464000Y-105250000D01*
X164454101Y-105245899D01*
X164450000Y-105236000D01*
X164450000Y-104114000D01*
X164454101Y-104104101D01*
X164464000Y-104100000D01*
X165436000Y-104100000D01*
X165445899Y-104104101D01*
G37*
%TD.AperFunction*%
%TD*%
%TA.AperFunction,Conductor*%
%TO.N,12V*%
G36*
X143145899Y-103704101D02*
G01*
X143150000Y-103714000D01*
X143150000Y-107785500D01*
X143145899Y-107795399D01*
X143136000Y-107799500D01*
X141514000Y-107799500D01*
X141504101Y-107795399D01*
X141500000Y-107785500D01*
X141500000Y-103714000D01*
X141504101Y-103704101D01*
X141514000Y-103700000D01*
X143136000Y-103700000D01*
X143145899Y-103704101D01*
G37*
%TD.AperFunction*%
%TD*%
%TA.AperFunction,Conductor*%
%TO.N,C2*%
G36*
X168645899Y-104104101D02*
G01*
X168650000Y-104114000D01*
X168650000Y-105236000D01*
X168645899Y-105245899D01*
X168636000Y-105250000D01*
X167764000Y-105250000D01*
X167754101Y-105245899D01*
X167750000Y-105236000D01*
X167750000Y-104114000D01*
X167754101Y-104104101D01*
X167764000Y-104100000D01*
X168636000Y-104100000D01*
X168645899Y-104104101D01*
G37*
%TD.AperFunction*%
%TD*%
%TA.AperFunction,Conductor*%
%TO.N,12V*%
G36*
X146945899Y-104554101D02*
G01*
X146950000Y-104564000D01*
X146950000Y-107736000D01*
X146945899Y-107745899D01*
X146936000Y-107750000D01*
X145314000Y-107750000D01*
X145304101Y-107745899D01*
X145300000Y-107736000D01*
X145300000Y-104564000D01*
X145304101Y-104554101D01*
X145314000Y-104550000D01*
X146936000Y-104550000D01*
X146945899Y-104554101D01*
G37*
%TD.AperFunction*%
%TD*%
M02*
