%TF.GenerationSoftware,KiCad,Pcbnew,7.0.7*%
%TF.CreationDate,2024-04-09T13:37:02-07:00*%
%TF.ProjectId,Side B,53696465-2042-42e6-9b69-6361645f7063,rev?*%
%TF.SameCoordinates,Original*%
%TF.FileFunction,Drillmap*%
%TF.FilePolarity,Positive*%
%FSLAX45Y45*%
G04 Gerber Fmt 4.5, Leading zero omitted, Abs format (unit mm)*
G04 Created by KiCad (PCBNEW 7.0.7) date 2024-04-09 13:37:02*
%MOMM*%
%LPD*%
G01*
G04 APERTURE LIST*
%ADD10C,0.100000*%
%ADD11C,0.200000*%
G04 APERTURE END LIST*
D10*
X15183530Y-9230000D02*
X15183530Y-9439912D01*
X14774870Y-9439912D02*
X14774870Y-9230000D01*
X15556747Y-9439912D02*
X15556747Y-9230000D01*
X17555760Y-10780000D02*
X17555760Y-9230000D01*
X14055760Y-9230000D02*
X14055760Y-10780000D01*
X14774870Y-9230000D02*
X14055760Y-9230000D01*
X15183530Y-9439912D02*
X14774870Y-9439912D01*
X16189776Y-9230000D02*
X16189776Y-9439912D01*
X15556747Y-9230000D02*
X15183530Y-9230000D01*
X16189776Y-9439912D02*
X15556747Y-9439912D01*
X14055760Y-10780000D02*
X17555760Y-10780000D01*
X17555760Y-9230000D02*
X16189776Y-9230000D01*
D11*
X14311537Y-11096484D02*
X14311537Y-10896484D01*
X14311537Y-10896484D02*
X14359156Y-10896484D01*
X14359156Y-10896484D02*
X14387727Y-10906008D01*
X14387727Y-10906008D02*
X14406775Y-10925055D01*
X14406775Y-10925055D02*
X14416298Y-10944103D01*
X14416298Y-10944103D02*
X14425822Y-10982198D01*
X14425822Y-10982198D02*
X14425822Y-11010770D01*
X14425822Y-11010770D02*
X14416298Y-11048865D01*
X14416298Y-11048865D02*
X14406775Y-11067912D01*
X14406775Y-11067912D02*
X14387727Y-11086960D01*
X14387727Y-11086960D02*
X14359156Y-11096484D01*
X14359156Y-11096484D02*
X14311537Y-11096484D01*
X14511537Y-11096484D02*
X14511537Y-10963150D01*
X14511537Y-11001246D02*
X14521060Y-10982198D01*
X14521060Y-10982198D02*
X14530584Y-10972674D01*
X14530584Y-10972674D02*
X14549632Y-10963150D01*
X14549632Y-10963150D02*
X14568679Y-10963150D01*
X14635346Y-11096484D02*
X14635346Y-10963150D01*
X14635346Y-10896484D02*
X14625822Y-10906008D01*
X14625822Y-10906008D02*
X14635346Y-10915531D01*
X14635346Y-10915531D02*
X14644870Y-10906008D01*
X14644870Y-10906008D02*
X14635346Y-10896484D01*
X14635346Y-10896484D02*
X14635346Y-10915531D01*
X14759156Y-11096484D02*
X14740108Y-11086960D01*
X14740108Y-11086960D02*
X14730584Y-11067912D01*
X14730584Y-11067912D02*
X14730584Y-10896484D01*
X14863917Y-11096484D02*
X14844870Y-11086960D01*
X14844870Y-11086960D02*
X14835346Y-11067912D01*
X14835346Y-11067912D02*
X14835346Y-10896484D01*
X15092489Y-11096484D02*
X15092489Y-10896484D01*
X15092489Y-10896484D02*
X15159156Y-11039341D01*
X15159156Y-11039341D02*
X15225822Y-10896484D01*
X15225822Y-10896484D02*
X15225822Y-11096484D01*
X15406775Y-11096484D02*
X15406775Y-10991722D01*
X15406775Y-10991722D02*
X15397251Y-10972674D01*
X15397251Y-10972674D02*
X15378203Y-10963150D01*
X15378203Y-10963150D02*
X15340108Y-10963150D01*
X15340108Y-10963150D02*
X15321060Y-10972674D01*
X15406775Y-11086960D02*
X15387727Y-11096484D01*
X15387727Y-11096484D02*
X15340108Y-11096484D01*
X15340108Y-11096484D02*
X15321060Y-11086960D01*
X15321060Y-11086960D02*
X15311537Y-11067912D01*
X15311537Y-11067912D02*
X15311537Y-11048865D01*
X15311537Y-11048865D02*
X15321060Y-11029817D01*
X15321060Y-11029817D02*
X15340108Y-11020293D01*
X15340108Y-11020293D02*
X15387727Y-11020293D01*
X15387727Y-11020293D02*
X15406775Y-11010770D01*
X15502013Y-10963150D02*
X15502013Y-11163150D01*
X15502013Y-10972674D02*
X15521060Y-10963150D01*
X15521060Y-10963150D02*
X15559156Y-10963150D01*
X15559156Y-10963150D02*
X15578203Y-10972674D01*
X15578203Y-10972674D02*
X15587727Y-10982198D01*
X15587727Y-10982198D02*
X15597251Y-11001246D01*
X15597251Y-11001246D02*
X15597251Y-11058389D01*
X15597251Y-11058389D02*
X15587727Y-11077436D01*
X15587727Y-11077436D02*
X15578203Y-11086960D01*
X15578203Y-11086960D02*
X15559156Y-11096484D01*
X15559156Y-11096484D02*
X15521060Y-11096484D01*
X15521060Y-11096484D02*
X15502013Y-11086960D01*
X15682965Y-11077436D02*
X15692489Y-11086960D01*
X15692489Y-11086960D02*
X15682965Y-11096484D01*
X15682965Y-11096484D02*
X15673441Y-11086960D01*
X15673441Y-11086960D02*
X15682965Y-11077436D01*
X15682965Y-11077436D02*
X15682965Y-11096484D01*
X15682965Y-10972674D02*
X15692489Y-10982198D01*
X15692489Y-10982198D02*
X15682965Y-10991722D01*
X15682965Y-10991722D02*
X15673441Y-10982198D01*
X15673441Y-10982198D02*
X15682965Y-10972674D01*
X15682965Y-10972674D02*
X15682965Y-10991722D01*
M02*
