%TF.GenerationSoftware,KiCad,Pcbnew,7.0.7*%
%TF.CreationDate,2024-04-09T13:36:58-07:00*%
%TF.ProjectId,Side B,53696465-2042-42e6-9b69-6361645f7063,rev?*%
%TF.SameCoordinates,Original*%
%TF.FileFunction,Legend,Top*%
%TF.FilePolarity,Positive*%
%FSLAX46Y46*%
G04 Gerber Fmt 4.6, Leading zero omitted, Abs format (unit mm)*
G04 Created by KiCad (PCBNEW 7.0.7) date 2024-04-09 13:36:58*
%MOMM*%
%LPD*%
G01*
G04 APERTURE LIST*
%ADD10C,0.150000*%
%ADD11C,0.120000*%
G04 APERTURE END LIST*
D10*
X145466666Y-90774819D02*
X145466666Y-91489104D01*
X145466666Y-91489104D02*
X145419047Y-91631961D01*
X145419047Y-91631961D02*
X145323809Y-91727200D01*
X145323809Y-91727200D02*
X145180952Y-91774819D01*
X145180952Y-91774819D02*
X145085714Y-91774819D01*
X146466666Y-91774819D02*
X145895238Y-91774819D01*
X146180952Y-91774819D02*
X146180952Y-90774819D01*
X146180952Y-90774819D02*
X146085714Y-90917676D01*
X146085714Y-90917676D02*
X145990476Y-91012914D01*
X145990476Y-91012914D02*
X145895238Y-91060533D01*
X163366666Y-90774819D02*
X163366666Y-91489104D01*
X163366666Y-91489104D02*
X163319047Y-91631961D01*
X163319047Y-91631961D02*
X163223809Y-91727200D01*
X163223809Y-91727200D02*
X163080952Y-91774819D01*
X163080952Y-91774819D02*
X162985714Y-91774819D01*
X163795238Y-90870057D02*
X163842857Y-90822438D01*
X163842857Y-90822438D02*
X163938095Y-90774819D01*
X163938095Y-90774819D02*
X164176190Y-90774819D01*
X164176190Y-90774819D02*
X164271428Y-90822438D01*
X164271428Y-90822438D02*
X164319047Y-90870057D01*
X164319047Y-90870057D02*
X164366666Y-90965295D01*
X164366666Y-90965295D02*
X164366666Y-91060533D01*
X164366666Y-91060533D02*
X164319047Y-91203390D01*
X164319047Y-91203390D02*
X163747619Y-91774819D01*
X163747619Y-91774819D02*
X164366666Y-91774819D01*
X166166666Y-90774819D02*
X166166666Y-91489104D01*
X166166666Y-91489104D02*
X166119047Y-91631961D01*
X166119047Y-91631961D02*
X166023809Y-91727200D01*
X166023809Y-91727200D02*
X165880952Y-91774819D01*
X165880952Y-91774819D02*
X165785714Y-91774819D01*
X166547619Y-90774819D02*
X167166666Y-90774819D01*
X167166666Y-90774819D02*
X166833333Y-91155771D01*
X166833333Y-91155771D02*
X166976190Y-91155771D01*
X166976190Y-91155771D02*
X167071428Y-91203390D01*
X167071428Y-91203390D02*
X167119047Y-91251009D01*
X167119047Y-91251009D02*
X167166666Y-91346247D01*
X167166666Y-91346247D02*
X167166666Y-91584342D01*
X167166666Y-91584342D02*
X167119047Y-91679580D01*
X167119047Y-91679580D02*
X167071428Y-91727200D01*
X167071428Y-91727200D02*
X166976190Y-91774819D01*
X166976190Y-91774819D02*
X166690476Y-91774819D01*
X166690476Y-91774819D02*
X166595238Y-91727200D01*
X166595238Y-91727200D02*
X166547619Y-91679580D01*
D11*
%TO.C,R1*%
X166335436Y-103915000D02*
X166789564Y-103915000D01*
X166335436Y-105385000D02*
X166789564Y-105385000D01*
%TD*%
M02*
