%TF.GenerationSoftware,KiCad,Pcbnew,7.0.7*%
%TF.CreationDate,2024-04-09T12:20:53-07:00*%
%TF.ProjectId,Side A,53696465-2041-42e6-9b69-6361645f7063,rev?*%
%TF.SameCoordinates,Original*%
%TF.FileFunction,Drillmap*%
%TF.FilePolarity,Positive*%
%FSLAX45Y45*%
G04 Gerber Fmt 4.5, Leading zero omitted, Abs format (unit mm)*
G04 Created by KiCad (PCBNEW 7.0.7) date 2024-04-09 12:20:53*
%MOMM*%
%LPD*%
G01*
G04 APERTURE LIST*
%ADD10C,0.100000*%
%ADD11C,0.200000*%
%ADD12C,0.150000*%
G04 APERTURE END LIST*
D10*
X12140360Y-10966431D02*
X12140360Y-11270000D01*
X11790360Y-11270000D02*
X11790360Y-10966431D01*
X11790360Y-10966431D02*
X11425360Y-10966431D01*
X14225070Y-10966431D02*
X14225070Y-11270000D01*
X13573660Y-10966431D02*
X12140360Y-10966431D01*
X14225070Y-11270000D02*
X13573660Y-11270000D01*
X11425360Y-10966431D02*
X11425360Y-12566431D01*
X11425360Y-12566431D02*
X14925360Y-12566431D01*
X14764497Y-11984524D02*
G75*
G03*
X14764497Y-11984524I-100000J0D01*
G01*
X14925360Y-10966431D02*
X14225070Y-10966431D01*
X12140360Y-11270000D02*
X11790360Y-11270000D01*
X14925360Y-12566431D02*
X14925360Y-10966431D01*
X13573660Y-11270000D02*
X13573660Y-10966431D01*
D11*
D12*
X12260000Y-11030000D02*
X12410000Y-11180000D01*
X12410000Y-11030000D02*
X12260000Y-11180000D01*
X12960000Y-11030000D02*
X13110000Y-11180000D01*
X13110000Y-11030000D02*
X12960000Y-11180000D01*
X13260000Y-11030000D02*
X13410000Y-11180000D01*
X13410000Y-11030000D02*
X13260000Y-11180000D01*
D11*
X11681137Y-12882915D02*
X11681137Y-12682915D01*
X11681137Y-12682915D02*
X11728756Y-12682915D01*
X11728756Y-12682915D02*
X11757328Y-12692438D01*
X11757328Y-12692438D02*
X11776375Y-12711486D01*
X11776375Y-12711486D02*
X11785899Y-12730534D01*
X11785899Y-12730534D02*
X11795423Y-12768629D01*
X11795423Y-12768629D02*
X11795423Y-12797200D01*
X11795423Y-12797200D02*
X11785899Y-12835295D01*
X11785899Y-12835295D02*
X11776375Y-12854343D01*
X11776375Y-12854343D02*
X11757328Y-12873391D01*
X11757328Y-12873391D02*
X11728756Y-12882915D01*
X11728756Y-12882915D02*
X11681137Y-12882915D01*
X11881137Y-12882915D02*
X11881137Y-12749581D01*
X11881137Y-12787676D02*
X11890661Y-12768629D01*
X11890661Y-12768629D02*
X11900185Y-12759105D01*
X11900185Y-12759105D02*
X11919232Y-12749581D01*
X11919232Y-12749581D02*
X11938280Y-12749581D01*
X12004947Y-12882915D02*
X12004947Y-12749581D01*
X12004947Y-12682915D02*
X11995423Y-12692438D01*
X11995423Y-12692438D02*
X12004947Y-12701962D01*
X12004947Y-12701962D02*
X12014470Y-12692438D01*
X12014470Y-12692438D02*
X12004947Y-12682915D01*
X12004947Y-12682915D02*
X12004947Y-12701962D01*
X12128756Y-12882915D02*
X12109708Y-12873391D01*
X12109708Y-12873391D02*
X12100185Y-12854343D01*
X12100185Y-12854343D02*
X12100185Y-12682915D01*
X12233518Y-12882915D02*
X12214470Y-12873391D01*
X12214470Y-12873391D02*
X12204947Y-12854343D01*
X12204947Y-12854343D02*
X12204947Y-12682915D01*
X12462089Y-12882915D02*
X12462089Y-12682915D01*
X12462089Y-12682915D02*
X12528756Y-12825772D01*
X12528756Y-12825772D02*
X12595423Y-12682915D01*
X12595423Y-12682915D02*
X12595423Y-12882915D01*
X12776375Y-12882915D02*
X12776375Y-12778153D01*
X12776375Y-12778153D02*
X12766851Y-12759105D01*
X12766851Y-12759105D02*
X12747804Y-12749581D01*
X12747804Y-12749581D02*
X12709708Y-12749581D01*
X12709708Y-12749581D02*
X12690661Y-12759105D01*
X12776375Y-12873391D02*
X12757328Y-12882915D01*
X12757328Y-12882915D02*
X12709708Y-12882915D01*
X12709708Y-12882915D02*
X12690661Y-12873391D01*
X12690661Y-12873391D02*
X12681137Y-12854343D01*
X12681137Y-12854343D02*
X12681137Y-12835295D01*
X12681137Y-12835295D02*
X12690661Y-12816248D01*
X12690661Y-12816248D02*
X12709708Y-12806724D01*
X12709708Y-12806724D02*
X12757328Y-12806724D01*
X12757328Y-12806724D02*
X12776375Y-12797200D01*
X12871613Y-12749581D02*
X12871613Y-12949581D01*
X12871613Y-12759105D02*
X12890661Y-12749581D01*
X12890661Y-12749581D02*
X12928756Y-12749581D01*
X12928756Y-12749581D02*
X12947804Y-12759105D01*
X12947804Y-12759105D02*
X12957328Y-12768629D01*
X12957328Y-12768629D02*
X12966851Y-12787676D01*
X12966851Y-12787676D02*
X12966851Y-12844819D01*
X12966851Y-12844819D02*
X12957328Y-12863867D01*
X12957328Y-12863867D02*
X12947804Y-12873391D01*
X12947804Y-12873391D02*
X12928756Y-12882915D01*
X12928756Y-12882915D02*
X12890661Y-12882915D01*
X12890661Y-12882915D02*
X12871613Y-12873391D01*
X13052566Y-12863867D02*
X13062089Y-12873391D01*
X13062089Y-12873391D02*
X13052566Y-12882915D01*
X13052566Y-12882915D02*
X13043042Y-12873391D01*
X13043042Y-12873391D02*
X13052566Y-12863867D01*
X13052566Y-12863867D02*
X13052566Y-12882915D01*
X13052566Y-12759105D02*
X13062089Y-12768629D01*
X13062089Y-12768629D02*
X13052566Y-12778153D01*
X13052566Y-12778153D02*
X13043042Y-12768629D01*
X13043042Y-12768629D02*
X13052566Y-12759105D01*
X13052566Y-12759105D02*
X13052566Y-12778153D01*
D12*
X11270360Y-13136431D02*
X11420360Y-13286431D01*
X11420360Y-13136431D02*
X11270360Y-13286431D01*
D11*
X11785899Y-13302915D02*
X11671613Y-13302915D01*
X11728756Y-13302915D02*
X11728756Y-13102915D01*
X11728756Y-13102915D02*
X11709708Y-13131486D01*
X11709708Y-13131486D02*
X11690661Y-13150534D01*
X11690661Y-13150534D02*
X11671613Y-13160057D01*
X11871613Y-13283867D02*
X11881137Y-13293391D01*
X11881137Y-13293391D02*
X11871613Y-13302915D01*
X11871613Y-13302915D02*
X11862089Y-13293391D01*
X11862089Y-13293391D02*
X11871613Y-13283867D01*
X11871613Y-13283867D02*
X11871613Y-13302915D01*
X12062089Y-13102915D02*
X11966851Y-13102915D01*
X11966851Y-13102915D02*
X11957328Y-13198153D01*
X11957328Y-13198153D02*
X11966851Y-13188629D01*
X11966851Y-13188629D02*
X11985899Y-13179105D01*
X11985899Y-13179105D02*
X12033518Y-13179105D01*
X12033518Y-13179105D02*
X12052566Y-13188629D01*
X12052566Y-13188629D02*
X12062089Y-13198153D01*
X12062089Y-13198153D02*
X12071613Y-13217200D01*
X12071613Y-13217200D02*
X12071613Y-13264819D01*
X12071613Y-13264819D02*
X12062089Y-13283867D01*
X12062089Y-13283867D02*
X12052566Y-13293391D01*
X12052566Y-13293391D02*
X12033518Y-13302915D01*
X12033518Y-13302915D02*
X11985899Y-13302915D01*
X11985899Y-13302915D02*
X11966851Y-13293391D01*
X11966851Y-13293391D02*
X11957328Y-13283867D01*
X12195423Y-13102915D02*
X12214470Y-13102915D01*
X12214470Y-13102915D02*
X12233518Y-13112438D01*
X12233518Y-13112438D02*
X12243042Y-13121962D01*
X12243042Y-13121962D02*
X12252566Y-13141010D01*
X12252566Y-13141010D02*
X12262089Y-13179105D01*
X12262089Y-13179105D02*
X12262089Y-13226724D01*
X12262089Y-13226724D02*
X12252566Y-13264819D01*
X12252566Y-13264819D02*
X12243042Y-13283867D01*
X12243042Y-13283867D02*
X12233518Y-13293391D01*
X12233518Y-13293391D02*
X12214470Y-13302915D01*
X12214470Y-13302915D02*
X12195423Y-13302915D01*
X12195423Y-13302915D02*
X12176375Y-13293391D01*
X12176375Y-13293391D02*
X12166851Y-13283867D01*
X12166851Y-13283867D02*
X12157328Y-13264819D01*
X12157328Y-13264819D02*
X12147804Y-13226724D01*
X12147804Y-13226724D02*
X12147804Y-13179105D01*
X12147804Y-13179105D02*
X12157328Y-13141010D01*
X12157328Y-13141010D02*
X12166851Y-13121962D01*
X12166851Y-13121962D02*
X12176375Y-13112438D01*
X12176375Y-13112438D02*
X12195423Y-13102915D01*
X12385899Y-13102915D02*
X12404947Y-13102915D01*
X12404947Y-13102915D02*
X12423994Y-13112438D01*
X12423994Y-13112438D02*
X12433518Y-13121962D01*
X12433518Y-13121962D02*
X12443042Y-13141010D01*
X12443042Y-13141010D02*
X12452566Y-13179105D01*
X12452566Y-13179105D02*
X12452566Y-13226724D01*
X12452566Y-13226724D02*
X12443042Y-13264819D01*
X12443042Y-13264819D02*
X12433518Y-13283867D01*
X12433518Y-13283867D02*
X12423994Y-13293391D01*
X12423994Y-13293391D02*
X12404947Y-13302915D01*
X12404947Y-13302915D02*
X12385899Y-13302915D01*
X12385899Y-13302915D02*
X12366851Y-13293391D01*
X12366851Y-13293391D02*
X12357328Y-13283867D01*
X12357328Y-13283867D02*
X12347804Y-13264819D01*
X12347804Y-13264819D02*
X12338280Y-13226724D01*
X12338280Y-13226724D02*
X12338280Y-13179105D01*
X12338280Y-13179105D02*
X12347804Y-13141010D01*
X12347804Y-13141010D02*
X12357328Y-13121962D01*
X12357328Y-13121962D02*
X12366851Y-13112438D01*
X12366851Y-13112438D02*
X12385899Y-13102915D01*
X12538280Y-13302915D02*
X12538280Y-13169581D01*
X12538280Y-13188629D02*
X12547804Y-13179105D01*
X12547804Y-13179105D02*
X12566851Y-13169581D01*
X12566851Y-13169581D02*
X12595423Y-13169581D01*
X12595423Y-13169581D02*
X12614470Y-13179105D01*
X12614470Y-13179105D02*
X12623994Y-13198153D01*
X12623994Y-13198153D02*
X12623994Y-13302915D01*
X12623994Y-13198153D02*
X12633518Y-13179105D01*
X12633518Y-13179105D02*
X12652566Y-13169581D01*
X12652566Y-13169581D02*
X12681137Y-13169581D01*
X12681137Y-13169581D02*
X12700185Y-13179105D01*
X12700185Y-13179105D02*
X12709709Y-13198153D01*
X12709709Y-13198153D02*
X12709709Y-13302915D01*
X12804947Y-13302915D02*
X12804947Y-13169581D01*
X12804947Y-13188629D02*
X12814470Y-13179105D01*
X12814470Y-13179105D02*
X12833518Y-13169581D01*
X12833518Y-13169581D02*
X12862090Y-13169581D01*
X12862090Y-13169581D02*
X12881137Y-13179105D01*
X12881137Y-13179105D02*
X12890661Y-13198153D01*
X12890661Y-13198153D02*
X12890661Y-13302915D01*
X12890661Y-13198153D02*
X12900185Y-13179105D01*
X12900185Y-13179105D02*
X12919232Y-13169581D01*
X12919232Y-13169581D02*
X12947804Y-13169581D01*
X12947804Y-13169581D02*
X12966851Y-13179105D01*
X12966851Y-13179105D02*
X12976375Y-13198153D01*
X12976375Y-13198153D02*
X12976375Y-13302915D01*
X13366851Y-13093391D02*
X13195423Y-13350534D01*
X13623994Y-13102915D02*
X13643042Y-13102915D01*
X13643042Y-13102915D02*
X13662090Y-13112438D01*
X13662090Y-13112438D02*
X13671613Y-13121962D01*
X13671613Y-13121962D02*
X13681137Y-13141010D01*
X13681137Y-13141010D02*
X13690661Y-13179105D01*
X13690661Y-13179105D02*
X13690661Y-13226724D01*
X13690661Y-13226724D02*
X13681137Y-13264819D01*
X13681137Y-13264819D02*
X13671613Y-13283867D01*
X13671613Y-13283867D02*
X13662090Y-13293391D01*
X13662090Y-13293391D02*
X13643042Y-13302915D01*
X13643042Y-13302915D02*
X13623994Y-13302915D01*
X13623994Y-13302915D02*
X13604947Y-13293391D01*
X13604947Y-13293391D02*
X13595423Y-13283867D01*
X13595423Y-13283867D02*
X13585899Y-13264819D01*
X13585899Y-13264819D02*
X13576375Y-13226724D01*
X13576375Y-13226724D02*
X13576375Y-13179105D01*
X13576375Y-13179105D02*
X13585899Y-13141010D01*
X13585899Y-13141010D02*
X13595423Y-13121962D01*
X13595423Y-13121962D02*
X13604947Y-13112438D01*
X13604947Y-13112438D02*
X13623994Y-13102915D01*
X13776375Y-13283867D02*
X13785899Y-13293391D01*
X13785899Y-13293391D02*
X13776375Y-13302915D01*
X13776375Y-13302915D02*
X13766852Y-13293391D01*
X13766852Y-13293391D02*
X13776375Y-13283867D01*
X13776375Y-13283867D02*
X13776375Y-13302915D01*
X13909709Y-13102915D02*
X13928756Y-13102915D01*
X13928756Y-13102915D02*
X13947804Y-13112438D01*
X13947804Y-13112438D02*
X13957328Y-13121962D01*
X13957328Y-13121962D02*
X13966852Y-13141010D01*
X13966852Y-13141010D02*
X13976375Y-13179105D01*
X13976375Y-13179105D02*
X13976375Y-13226724D01*
X13976375Y-13226724D02*
X13966852Y-13264819D01*
X13966852Y-13264819D02*
X13957328Y-13283867D01*
X13957328Y-13283867D02*
X13947804Y-13293391D01*
X13947804Y-13293391D02*
X13928756Y-13302915D01*
X13928756Y-13302915D02*
X13909709Y-13302915D01*
X13909709Y-13302915D02*
X13890661Y-13293391D01*
X13890661Y-13293391D02*
X13881137Y-13283867D01*
X13881137Y-13283867D02*
X13871613Y-13264819D01*
X13871613Y-13264819D02*
X13862090Y-13226724D01*
X13862090Y-13226724D02*
X13862090Y-13179105D01*
X13862090Y-13179105D02*
X13871613Y-13141010D01*
X13871613Y-13141010D02*
X13881137Y-13121962D01*
X13881137Y-13121962D02*
X13890661Y-13112438D01*
X13890661Y-13112438D02*
X13909709Y-13102915D01*
X14157328Y-13102915D02*
X14062090Y-13102915D01*
X14062090Y-13102915D02*
X14052566Y-13198153D01*
X14052566Y-13198153D02*
X14062090Y-13188629D01*
X14062090Y-13188629D02*
X14081137Y-13179105D01*
X14081137Y-13179105D02*
X14128756Y-13179105D01*
X14128756Y-13179105D02*
X14147804Y-13188629D01*
X14147804Y-13188629D02*
X14157328Y-13198153D01*
X14157328Y-13198153D02*
X14166852Y-13217200D01*
X14166852Y-13217200D02*
X14166852Y-13264819D01*
X14166852Y-13264819D02*
X14157328Y-13283867D01*
X14157328Y-13283867D02*
X14147804Y-13293391D01*
X14147804Y-13293391D02*
X14128756Y-13302915D01*
X14128756Y-13302915D02*
X14081137Y-13302915D01*
X14081137Y-13302915D02*
X14062090Y-13293391D01*
X14062090Y-13293391D02*
X14052566Y-13283867D01*
X14262090Y-13302915D02*
X14300185Y-13302915D01*
X14300185Y-13302915D02*
X14319233Y-13293391D01*
X14319233Y-13293391D02*
X14328756Y-13283867D01*
X14328756Y-13283867D02*
X14347804Y-13255295D01*
X14347804Y-13255295D02*
X14357328Y-13217200D01*
X14357328Y-13217200D02*
X14357328Y-13141010D01*
X14357328Y-13141010D02*
X14347804Y-13121962D01*
X14347804Y-13121962D02*
X14338280Y-13112438D01*
X14338280Y-13112438D02*
X14319233Y-13102915D01*
X14319233Y-13102915D02*
X14281137Y-13102915D01*
X14281137Y-13102915D02*
X14262090Y-13112438D01*
X14262090Y-13112438D02*
X14252566Y-13121962D01*
X14252566Y-13121962D02*
X14243042Y-13141010D01*
X14243042Y-13141010D02*
X14243042Y-13188629D01*
X14243042Y-13188629D02*
X14252566Y-13207676D01*
X14252566Y-13207676D02*
X14262090Y-13217200D01*
X14262090Y-13217200D02*
X14281137Y-13226724D01*
X14281137Y-13226724D02*
X14319233Y-13226724D01*
X14319233Y-13226724D02*
X14338280Y-13217200D01*
X14338280Y-13217200D02*
X14347804Y-13207676D01*
X14347804Y-13207676D02*
X14357328Y-13188629D01*
X14547804Y-13302915D02*
X14433518Y-13302915D01*
X14490661Y-13302915D02*
X14490661Y-13102915D01*
X14490661Y-13102915D02*
X14471613Y-13131486D01*
X14471613Y-13131486D02*
X14452566Y-13150534D01*
X14452566Y-13150534D02*
X14433518Y-13160057D01*
X14623994Y-13102915D02*
X14623994Y-13141010D01*
X14700185Y-13102915D02*
X14700185Y-13141010D01*
X14995423Y-13379105D02*
X14985899Y-13369581D01*
X14985899Y-13369581D02*
X14966852Y-13341010D01*
X14966852Y-13341010D02*
X14957328Y-13321962D01*
X14957328Y-13321962D02*
X14947804Y-13293391D01*
X14947804Y-13293391D02*
X14938280Y-13245772D01*
X14938280Y-13245772D02*
X14938280Y-13207676D01*
X14938280Y-13207676D02*
X14947804Y-13160057D01*
X14947804Y-13160057D02*
X14957328Y-13131486D01*
X14957328Y-13131486D02*
X14966852Y-13112438D01*
X14966852Y-13112438D02*
X14985899Y-13083867D01*
X14985899Y-13083867D02*
X14995423Y-13074343D01*
X15052566Y-13102915D02*
X15176375Y-13102915D01*
X15176375Y-13102915D02*
X15109709Y-13179105D01*
X15109709Y-13179105D02*
X15138280Y-13179105D01*
X15138280Y-13179105D02*
X15157328Y-13188629D01*
X15157328Y-13188629D02*
X15166852Y-13198153D01*
X15166852Y-13198153D02*
X15176375Y-13217200D01*
X15176375Y-13217200D02*
X15176375Y-13264819D01*
X15176375Y-13264819D02*
X15166852Y-13283867D01*
X15166852Y-13283867D02*
X15157328Y-13293391D01*
X15157328Y-13293391D02*
X15138280Y-13302915D01*
X15138280Y-13302915D02*
X15081137Y-13302915D01*
X15081137Y-13302915D02*
X15062090Y-13293391D01*
X15062090Y-13293391D02*
X15052566Y-13283867D01*
X15414471Y-13302915D02*
X15414471Y-13102915D01*
X15500185Y-13302915D02*
X15500185Y-13198153D01*
X15500185Y-13198153D02*
X15490661Y-13179105D01*
X15490661Y-13179105D02*
X15471614Y-13169581D01*
X15471614Y-13169581D02*
X15443042Y-13169581D01*
X15443042Y-13169581D02*
X15423995Y-13179105D01*
X15423995Y-13179105D02*
X15414471Y-13188629D01*
X15623995Y-13302915D02*
X15604947Y-13293391D01*
X15604947Y-13293391D02*
X15595423Y-13283867D01*
X15595423Y-13283867D02*
X15585899Y-13264819D01*
X15585899Y-13264819D02*
X15585899Y-13207676D01*
X15585899Y-13207676D02*
X15595423Y-13188629D01*
X15595423Y-13188629D02*
X15604947Y-13179105D01*
X15604947Y-13179105D02*
X15623995Y-13169581D01*
X15623995Y-13169581D02*
X15652566Y-13169581D01*
X15652566Y-13169581D02*
X15671614Y-13179105D01*
X15671614Y-13179105D02*
X15681137Y-13188629D01*
X15681137Y-13188629D02*
X15690661Y-13207676D01*
X15690661Y-13207676D02*
X15690661Y-13264819D01*
X15690661Y-13264819D02*
X15681137Y-13283867D01*
X15681137Y-13283867D02*
X15671614Y-13293391D01*
X15671614Y-13293391D02*
X15652566Y-13302915D01*
X15652566Y-13302915D02*
X15623995Y-13302915D01*
X15804947Y-13302915D02*
X15785899Y-13293391D01*
X15785899Y-13293391D02*
X15776376Y-13274343D01*
X15776376Y-13274343D02*
X15776376Y-13102915D01*
X15957328Y-13293391D02*
X15938280Y-13302915D01*
X15938280Y-13302915D02*
X15900185Y-13302915D01*
X15900185Y-13302915D02*
X15881137Y-13293391D01*
X15881137Y-13293391D02*
X15871614Y-13274343D01*
X15871614Y-13274343D02*
X15871614Y-13198153D01*
X15871614Y-13198153D02*
X15881137Y-13179105D01*
X15881137Y-13179105D02*
X15900185Y-13169581D01*
X15900185Y-13169581D02*
X15938280Y-13169581D01*
X15938280Y-13169581D02*
X15957328Y-13179105D01*
X15957328Y-13179105D02*
X15966852Y-13198153D01*
X15966852Y-13198153D02*
X15966852Y-13217200D01*
X15966852Y-13217200D02*
X15871614Y-13236248D01*
X16043042Y-13293391D02*
X16062090Y-13302915D01*
X16062090Y-13302915D02*
X16100185Y-13302915D01*
X16100185Y-13302915D02*
X16119233Y-13293391D01*
X16119233Y-13293391D02*
X16128757Y-13274343D01*
X16128757Y-13274343D02*
X16128757Y-13264819D01*
X16128757Y-13264819D02*
X16119233Y-13245772D01*
X16119233Y-13245772D02*
X16100185Y-13236248D01*
X16100185Y-13236248D02*
X16071614Y-13236248D01*
X16071614Y-13236248D02*
X16052566Y-13226724D01*
X16052566Y-13226724D02*
X16043042Y-13207676D01*
X16043042Y-13207676D02*
X16043042Y-13198153D01*
X16043042Y-13198153D02*
X16052566Y-13179105D01*
X16052566Y-13179105D02*
X16071614Y-13169581D01*
X16071614Y-13169581D02*
X16100185Y-13169581D01*
X16100185Y-13169581D02*
X16119233Y-13179105D01*
X16195423Y-13379105D02*
X16204947Y-13369581D01*
X16204947Y-13369581D02*
X16223995Y-13341010D01*
X16223995Y-13341010D02*
X16233518Y-13321962D01*
X16233518Y-13321962D02*
X16243042Y-13293391D01*
X16243042Y-13293391D02*
X16252566Y-13245772D01*
X16252566Y-13245772D02*
X16252566Y-13207676D01*
X16252566Y-13207676D02*
X16243042Y-13160057D01*
X16243042Y-13160057D02*
X16233518Y-13131486D01*
X16233518Y-13131486D02*
X16223995Y-13112438D01*
X16223995Y-13112438D02*
X16204947Y-13083867D01*
X16204947Y-13083867D02*
X16195423Y-13074343D01*
M02*
