%TF.GenerationSoftware,KiCad,Pcbnew,7.0.7*%
%TF.CreationDate,2024-04-09T12:20:50-07:00*%
%TF.ProjectId,Side A,53696465-2041-42e6-9b69-6361645f7063,rev?*%
%TF.SameCoordinates,Original*%
%TF.FileFunction,Copper,L2,Bot*%
%TF.FilePolarity,Positive*%
%FSLAX46Y46*%
G04 Gerber Fmt 4.6, Leading zero omitted, Abs format (unit mm)*
G04 Created by KiCad (PCBNEW 7.0.7) date 2024-04-09 12:20:50*
%MOMM*%
%LPD*%
G01*
G04 APERTURE LIST*
%TA.AperFunction,ComponentPad*%
%ADD10R,1.700000X1.700000*%
%TD*%
G04 APERTURE END LIST*
D10*
%TO.P,J3,1,Pin_1*%
%TO.N,unconnected-(J3-Pin_1-Pad1)*%
X123350000Y-111050000D03*
%TD*%
%TO.P,J1,1,Pin_1*%
%TO.N,GND*%
X130350000Y-111050000D03*
%TD*%
%TO.P,J2,1,Pin_1*%
%TO.N,unconnected-(J2-Pin_1-Pad1)*%
X133350000Y-111050000D03*
%TD*%
%TA.AperFunction,NonConductor*%
G36*
X135595945Y-109754101D02*
G01*
X135600045Y-109763952D01*
X135610275Y-112900000D01*
X142249953Y-112900000D01*
X142259852Y-112904101D01*
X142263953Y-112914000D01*
X142263953Y-121913242D01*
X142259852Y-121923141D01*
X142249953Y-121927242D01*
X136777953Y-121927242D01*
X136768054Y-121923141D01*
X136763953Y-121913242D01*
X136763953Y-117691242D01*
X136768054Y-117681343D01*
X136777953Y-117677242D01*
X137450123Y-117677242D01*
X137450023Y-114750000D01*
X128921481Y-114750000D01*
X128911582Y-114745899D01*
X128907481Y-114736078D01*
X128891707Y-111919747D01*
X129299500Y-111919747D01*
X129311133Y-111978231D01*
X129311134Y-111978234D01*
X129355447Y-112044552D01*
X129421765Y-112088865D01*
X129421767Y-112088865D01*
X129421769Y-112088867D01*
X129480252Y-112100500D01*
X131219748Y-112100500D01*
X131278231Y-112088867D01*
X131344552Y-112044552D01*
X131388867Y-111978231D01*
X131400500Y-111919748D01*
X131400500Y-111919747D01*
X132299500Y-111919747D01*
X132311133Y-111978231D01*
X132311134Y-111978234D01*
X132355447Y-112044552D01*
X132421765Y-112088865D01*
X132421767Y-112088865D01*
X132421769Y-112088867D01*
X132480252Y-112100500D01*
X134219748Y-112100500D01*
X134278231Y-112088867D01*
X134344552Y-112044552D01*
X134388867Y-111978231D01*
X134400500Y-111919748D01*
X134400500Y-110180252D01*
X134388867Y-110121769D01*
X134388865Y-110121767D01*
X134388865Y-110121765D01*
X134344552Y-110055447D01*
X134278234Y-110011134D01*
X134278231Y-110011133D01*
X134219748Y-109999500D01*
X132480252Y-109999500D01*
X132421768Y-110011133D01*
X132421765Y-110011134D01*
X132355447Y-110055447D01*
X132311134Y-110121765D01*
X132311133Y-110121768D01*
X132299500Y-110180252D01*
X132299500Y-111919747D01*
X131400500Y-111919747D01*
X131400500Y-110180252D01*
X131388867Y-110121769D01*
X131388865Y-110121767D01*
X131388865Y-110121765D01*
X131344552Y-110055447D01*
X131278234Y-110011134D01*
X131278231Y-110011133D01*
X131219748Y-109999500D01*
X129480252Y-109999500D01*
X129421768Y-110011133D01*
X129421765Y-110011134D01*
X129355447Y-110055447D01*
X129311134Y-110121765D01*
X129311133Y-110121768D01*
X129299500Y-110180252D01*
X129299500Y-111919747D01*
X128891707Y-111919747D01*
X128879633Y-109764078D01*
X128883678Y-109754156D01*
X128893555Y-109750000D01*
X135586046Y-109750000D01*
X135595945Y-109754101D01*
G37*
%TD.AperFunction*%
M02*
