%TF.GenerationSoftware,KiCad,Pcbnew,7.0.7*%
%TF.CreationDate,2024-04-09T12:20:50-07:00*%
%TF.ProjectId,Side A,53696465-2041-42e6-9b69-6361645f7063,rev?*%
%TF.SameCoordinates,Original*%
%TF.FileFunction,Copper,L1,Top*%
%TF.FilePolarity,Positive*%
%FSLAX46Y46*%
G04 Gerber Fmt 4.6, Leading zero omitted, Abs format (unit mm)*
G04 Created by KiCad (PCBNEW 7.0.7) date 2024-04-09 12:20:50*
%MOMM*%
%LPD*%
G01*
G04 APERTURE LIST*
%TA.AperFunction,ComponentPad*%
%ADD10R,1.700000X1.700000*%
%TD*%
G04 APERTURE END LIST*
D10*
%TO.P,J3,1,Pin_1*%
%TO.N,unconnected-(J3-Pin_1-Pad1)*%
X123350000Y-111050000D03*
%TD*%
%TO.P,J1,1,Pin_1*%
%TO.N,GND*%
X130350000Y-111050000D03*
%TD*%
%TO.P,J2,1,Pin_1*%
%TO.N,unconnected-(J2-Pin_1-Pad1)*%
X133350000Y-111050000D03*
%TD*%
%TA.AperFunction,NonConductor*%
G36*
X124498751Y-109801464D02*
G01*
X124533389Y-109815839D01*
X124547717Y-109850424D01*
X124549612Y-112200960D01*
X124535288Y-112235620D01*
X124500652Y-112250000D01*
X122787299Y-112250000D01*
X122787299Y-116668997D01*
X122189543Y-116668997D01*
X122189543Y-111919748D01*
X122299500Y-111919748D01*
X122311133Y-111978231D01*
X122328882Y-112004795D01*
X122355447Y-112044552D01*
X122382012Y-112062301D01*
X122421769Y-112088867D01*
X122480252Y-112100500D01*
X122480255Y-112100500D01*
X124219745Y-112100500D01*
X124219748Y-112100500D01*
X124278231Y-112088867D01*
X124344552Y-112044552D01*
X124388867Y-111978231D01*
X124400500Y-111919748D01*
X124400500Y-110180252D01*
X124388867Y-110121769D01*
X124362301Y-110082012D01*
X124344552Y-110055447D01*
X124304795Y-110028882D01*
X124278231Y-110011133D01*
X124219748Y-109999500D01*
X122480252Y-109999500D01*
X122421769Y-110011132D01*
X122421769Y-110011133D01*
X122355447Y-110055447D01*
X122311133Y-110121768D01*
X122311133Y-110121769D01*
X122299500Y-110180252D01*
X122299500Y-111919748D01*
X122189543Y-111919748D01*
X122189543Y-109848931D01*
X122203895Y-109814283D01*
X122238542Y-109799931D01*
X124498751Y-109801464D01*
G37*
%TD.AperFunction*%
%TA.AperFunction,NonConductor*%
G36*
X122787299Y-118104822D02*
G01*
X133376000Y-118104822D01*
X133443039Y-118124507D01*
X133488794Y-118177311D01*
X133500000Y-118228822D01*
X133500000Y-121480822D01*
X133480315Y-121547861D01*
X133427511Y-121593616D01*
X133376000Y-121604822D01*
X118624000Y-121604822D01*
X118556961Y-121585137D01*
X118511206Y-121532333D01*
X118500000Y-121480822D01*
X118500000Y-118228822D01*
X118519685Y-118161783D01*
X118572489Y-118116028D01*
X118624000Y-118104822D01*
X122189543Y-118104822D01*
X122189543Y-116668997D01*
X122787299Y-116668997D01*
X122787299Y-118104822D01*
G37*
%TD.AperFunction*%
%TA.AperFunction,NonConductor*%
G36*
X135595834Y-109754101D02*
G01*
X135599934Y-109763999D01*
X135585183Y-112933200D01*
X142235938Y-112903198D01*
X142245855Y-112907254D01*
X142250000Y-112917135D01*
X142250000Y-121913242D01*
X142245899Y-121923141D01*
X142236000Y-121927242D01*
X136764000Y-121927242D01*
X136754101Y-121923141D01*
X136750000Y-121913242D01*
X136750000Y-117691242D01*
X136754101Y-117681343D01*
X136764000Y-117677242D01*
X137401049Y-117677242D01*
X137401050Y-117677242D01*
X137392189Y-114719835D01*
X128908998Y-114719835D01*
X128899099Y-114715734D01*
X128894998Y-114705913D01*
X128879393Y-111919747D01*
X129299500Y-111919747D01*
X129311133Y-111978231D01*
X129311134Y-111978234D01*
X129355447Y-112044552D01*
X129421765Y-112088865D01*
X129421767Y-112088865D01*
X129421769Y-112088867D01*
X129480252Y-112100500D01*
X131219748Y-112100500D01*
X131278231Y-112088867D01*
X131344552Y-112044552D01*
X131388867Y-111978231D01*
X131400500Y-111919748D01*
X131400500Y-110180252D01*
X131388867Y-110121769D01*
X131388865Y-110121767D01*
X131388865Y-110121765D01*
X131344552Y-110055447D01*
X131278234Y-110011134D01*
X131278231Y-110011133D01*
X131219748Y-109999500D01*
X129480252Y-109999500D01*
X129421768Y-110011133D01*
X129421765Y-110011134D01*
X129355447Y-110055447D01*
X129311134Y-110121765D01*
X129311133Y-110121768D01*
X129299500Y-110180252D01*
X129299500Y-111919747D01*
X128879393Y-111919747D01*
X128867521Y-109800000D01*
X132050000Y-109800000D01*
X132050000Y-109900000D01*
X132050000Y-112350000D01*
X132050000Y-112450000D01*
X132886000Y-112450000D01*
X132895899Y-112454101D01*
X132900000Y-112464000D01*
X132900000Y-114100000D01*
X132900000Y-114200000D01*
X139736000Y-114200000D01*
X139745899Y-114204101D01*
X139750000Y-114214000D01*
X139750000Y-118136000D01*
X139745899Y-118145899D01*
X139736000Y-118150000D01*
X139000000Y-118150000D01*
X137300000Y-118150000D01*
X137300000Y-118250000D01*
X137300000Y-121450000D01*
X141700000Y-121450000D01*
X141700000Y-118150000D01*
X140414000Y-118150000D01*
X140404101Y-118145899D01*
X140400000Y-118136000D01*
X140400000Y-113550000D01*
X133564000Y-113550000D01*
X133554101Y-113545899D01*
X133550000Y-113536000D01*
X133550000Y-112464000D01*
X133554101Y-112454101D01*
X133564000Y-112450000D01*
X134600000Y-112450000D01*
X134600000Y-109800000D01*
X132050000Y-109800000D01*
X128867521Y-109800000D01*
X128867320Y-109764078D01*
X128871365Y-109754156D01*
X128881242Y-109750000D01*
X135585935Y-109750000D01*
X135595834Y-109754101D01*
G37*
%TD.AperFunction*%
%TA.AperFunction,NonConductor*%
G36*
X134495899Y-109904101D02*
G01*
X134500000Y-109914000D01*
X134500000Y-112336000D01*
X134495899Y-112345899D01*
X134486000Y-112350000D01*
X133550000Y-112350000D01*
X133450000Y-112350000D01*
X133450000Y-113650000D01*
X133550000Y-113650000D01*
X140286000Y-113650000D01*
X140295899Y-113654101D01*
X140300000Y-113664000D01*
X140300000Y-118250000D01*
X140400000Y-118250000D01*
X141586000Y-118250000D01*
X141595899Y-118254101D01*
X141600000Y-118264000D01*
X141600000Y-121336000D01*
X141595899Y-121345899D01*
X141586000Y-121350000D01*
X137414000Y-121350000D01*
X137404101Y-121345899D01*
X137400000Y-121336000D01*
X137400000Y-118264000D01*
X137404101Y-118254101D01*
X137414000Y-118250000D01*
X139850000Y-118250000D01*
X139850000Y-114100000D01*
X133014000Y-114100000D01*
X133004101Y-114095899D01*
X133000000Y-114086000D01*
X133000000Y-112350000D01*
X132900000Y-112350000D01*
X132164000Y-112350000D01*
X132154101Y-112345899D01*
X132150000Y-112336000D01*
X132150000Y-111919747D01*
X132299500Y-111919747D01*
X132311133Y-111978231D01*
X132311134Y-111978234D01*
X132355447Y-112044552D01*
X132421765Y-112088865D01*
X132421767Y-112088865D01*
X132421769Y-112088867D01*
X132480252Y-112100500D01*
X134219748Y-112100500D01*
X134278231Y-112088867D01*
X134344552Y-112044552D01*
X134388867Y-111978231D01*
X134400500Y-111919748D01*
X134400500Y-110180252D01*
X134388867Y-110121769D01*
X134388865Y-110121767D01*
X134388865Y-110121765D01*
X134344552Y-110055447D01*
X134278234Y-110011134D01*
X134278231Y-110011133D01*
X134219748Y-109999500D01*
X132480252Y-109999500D01*
X132421768Y-110011133D01*
X132421765Y-110011134D01*
X132355447Y-110055447D01*
X132311134Y-110121765D01*
X132311133Y-110121768D01*
X132299500Y-110180252D01*
X132299500Y-111919747D01*
X132150000Y-111919747D01*
X132150000Y-109914000D01*
X132154101Y-109904101D01*
X132164000Y-109900000D01*
X134486000Y-109900000D01*
X134495899Y-109904101D01*
G37*
%TD.AperFunction*%
M02*
