%TF.GenerationSoftware,KiCad,Pcbnew,7.0.7*%
%TF.CreationDate,2024-04-09T12:20:50-07:00*%
%TF.ProjectId,Side A,53696465-2041-42e6-9b69-6361645f7063,rev?*%
%TF.SameCoordinates,Original*%
%TF.FileFunction,Legend,Top*%
%TF.FilePolarity,Positive*%
%FSLAX46Y46*%
G04 Gerber Fmt 4.6, Leading zero omitted, Abs format (unit mm)*
G04 Created by KiCad (PCBNEW 7.0.7) date 2024-04-09 12:20:50*
%MOMM*%
%LPD*%
G01*
G04 APERTURE LIST*
%ADD10C,0.150000*%
G04 APERTURE END LIST*
D10*
X123016666Y-108174819D02*
X123016666Y-108889104D01*
X123016666Y-108889104D02*
X122969047Y-109031961D01*
X122969047Y-109031961D02*
X122873809Y-109127200D01*
X122873809Y-109127200D02*
X122730952Y-109174819D01*
X122730952Y-109174819D02*
X122635714Y-109174819D01*
X123397619Y-108174819D02*
X124016666Y-108174819D01*
X124016666Y-108174819D02*
X123683333Y-108555771D01*
X123683333Y-108555771D02*
X123826190Y-108555771D01*
X123826190Y-108555771D02*
X123921428Y-108603390D01*
X123921428Y-108603390D02*
X123969047Y-108651009D01*
X123969047Y-108651009D02*
X124016666Y-108746247D01*
X124016666Y-108746247D02*
X124016666Y-108984342D01*
X124016666Y-108984342D02*
X123969047Y-109079580D01*
X123969047Y-109079580D02*
X123921428Y-109127200D01*
X123921428Y-109127200D02*
X123826190Y-109174819D01*
X123826190Y-109174819D02*
X123540476Y-109174819D01*
X123540476Y-109174819D02*
X123445238Y-109127200D01*
X123445238Y-109127200D02*
X123397619Y-109079580D01*
X130016666Y-108174819D02*
X130016666Y-108889104D01*
X130016666Y-108889104D02*
X129969047Y-109031961D01*
X129969047Y-109031961D02*
X129873809Y-109127200D01*
X129873809Y-109127200D02*
X129730952Y-109174819D01*
X129730952Y-109174819D02*
X129635714Y-109174819D01*
X131016666Y-109174819D02*
X130445238Y-109174819D01*
X130730952Y-109174819D02*
X130730952Y-108174819D01*
X130730952Y-108174819D02*
X130635714Y-108317676D01*
X130635714Y-108317676D02*
X130540476Y-108412914D01*
X130540476Y-108412914D02*
X130445238Y-108460533D01*
X133016666Y-108174819D02*
X133016666Y-108889104D01*
X133016666Y-108889104D02*
X132969047Y-109031961D01*
X132969047Y-109031961D02*
X132873809Y-109127200D01*
X132873809Y-109127200D02*
X132730952Y-109174819D01*
X132730952Y-109174819D02*
X132635714Y-109174819D01*
X133445238Y-108270057D02*
X133492857Y-108222438D01*
X133492857Y-108222438D02*
X133588095Y-108174819D01*
X133588095Y-108174819D02*
X133826190Y-108174819D01*
X133826190Y-108174819D02*
X133921428Y-108222438D01*
X133921428Y-108222438D02*
X133969047Y-108270057D01*
X133969047Y-108270057D02*
X134016666Y-108365295D01*
X134016666Y-108365295D02*
X134016666Y-108460533D01*
X134016666Y-108460533D02*
X133969047Y-108603390D01*
X133969047Y-108603390D02*
X133397619Y-109174819D01*
X133397619Y-109174819D02*
X134016666Y-109174819D01*
M02*
